<?xml version="1.0" encoding="utf-8"?>
<!-- Generator: Adobe Illustrator 25.2.1, SVG Export Plug-In . SVG Version: 6.00 Build 0)  -->
<svg version="1.1" id="Layer_1" xmlns="http://www.w3.org/2000/svg" xmlns:xlink="http://www.w3.org/1999/xlink" x="0px" y="0px"
	 viewBox="0 0 512 512" style="enable-background:new 0 0 512 512;" xml:space="preserve">
<style type="text/css">
	.st0{fill:none;stroke:#FA3B51;stroke-width:4;stroke-linecap:round;stroke-linejoin:round;stroke-miterlimit:10;}
	.st1{fill:#FA3B51;}
</style>
<g>
	<path class="st0" d="M189.9,322.1c-3.5-3.5-9.2-3.5-12.8,0l-39.7,39.7c-3.5,3.5-3.5,9.2,0,12.8c3.5,3.5,9.2,3.5,12.8,0l39.7-39.7
		C193.5,331.3,193.5,325.6,189.9,322.1z"/>
	<path class="st0" d="M142.6,327.3l11.7-11.7c3.5-3.5,3.5-9.2,0-12.8c-3.5-3.5-9.2-3.5-12.8,0l-11.7,11.7c-3.5,3.5-3.5,9.2,0,12.8
		C133.4,330.8,139.1,330.8,142.6,327.3z"/>
	<path class="st0" d="M196.9,358.1l-11.7,11.7c-5.7,5.7-1.6,15.4,6.4,15.4c2.3,0,4.6-0.9,6.4-2.6l11.7-11.7c3.5-3.5,3.5-9.2,0-12.8
		C206.1,354.6,200.4,354.6,196.9,358.1z"/>
	<path class="st0" d="M393.4,133.6l-1.2-6.5c-0.7-3.7-3.6-6.6-7.3-7.3l-6.5-1.2c-27.8-5.1-56.6-2.8-83.3,6.6
		c-34.7,12.2-57.4,32.3-77.5,57.2l-10.6-3.6c-17.2-5.9-36.2-2-49.6,10.2L124,219.4c-16.1,14.7-6.2,41.6,15.6,42.3l29.6,0.9
		c-1.5,9.2,1.4,18.8,8.2,25.6l46.4,46.4c6.6,6.6,16.1,9.8,25.6,8.2l0.9,29.6c0.7,21.9,27.7,31.7,42.3,15.6l30.4-33.4
		c12.2-13.4,16.1-32.4,10.2-49.6l-3.6-10.6c24.2-19.5,44.7-41.9,57.2-77.5C396.1,190.3,398.4,161.5,393.4,133.6z M176.7,244.8
		l-36.6-1.1c-5.6-0.2-8.2-7.1-4-10.8l33.4-30.4c8.6-7.8,20.7-10.3,31.6-6.5l4.9,1.7C195.5,212.1,185.6,227.9,176.7,244.8z
		 M309.6,342.4l-30.4,33.4c-3.8,4.2-10.7,1.6-10.8-4l-1.1-36.6c16.4-8.6,32.2-18.5,47.2-29.4l1.7,4.9
		C319.9,321.8,317.4,333.9,309.6,342.4z M327,273c-23.5,20.2-49.6,37.4-77.5,51c-4.3,2.1-9.5,1.3-13-2.2c0.1,0,0.4,0.4-46.4-46.4
		c-3.4-3.4-4.3-8.6-2.2-13c2.3-4.7,4.7-9.4,7.2-14l49,49c3.5,3.5,9.2,3.5,12.8,0c3.5-3.5,3.5-9.2,0-12.8l-52.4-52.4
		c10.5-17.2,22.2-33.1,35.2-48.2c32.7-37.9,84.1-57,135.8-47.6C384.7,186.8,367.1,238.5,327,273z"/>
	<path class="st0" d="M275.7,181.2c-24.5,24.5-7,66.4,27.5,66.4c34.5,0,52-41.9,27.5-66.4C315.6,166.1,290.9,166.1,275.7,181.2z
		 M318,223.5c-8.1,8.1-21.4,8.1-29.5,0c-8.1-8.1-8.1-21.4,0-29.5c8.1-8.1,21.4-8.1,29.5,0C326.1,202.2,326.1,215.4,318,223.5z"/>
</g>
<g>
	<path class="st1" d="M508,4v504H4V4H508 M512,0H0v512h512V0L512,0z"/>
</g>
</svg>
