<?xml version="1.0" encoding="utf-8"?>
<!-- Generator: Adobe Illustrator 25.2.1, SVG Export Plug-In . SVG Version: 6.00 Build 0)  -->
<svg version="1.1" id="Ebene_1" xmlns="http://www.w3.org/2000/svg" xmlns:xlink="http://www.w3.org/1999/xlink" x="0px" y="0px"
	 viewBox="0 0 512 512" style="enable-background:new 0 0 512 512;" xml:space="preserve">
<style type="text/css">
	.st0{fill:#FA3B51;}
	.st1{fill:none;stroke:#FA3B51;stroke-width:4;stroke-linecap:round;stroke-linejoin:round;stroke-miterlimit:10;}
</style>
<g>
	<path class="st0" d="M508,4v504H4V4H508 M512,0H0v512h512V0L512,0z"/>
</g>
<g>
	<path class="st1" d="M266.9,290c41.1-6.9,70.8-51.8,70.8-92.3c0-45-36.6-81.7-81.7-81.7s-81.7,36.6-81.7,81.7
		c0,40.5,29.6,85.4,70.8,92.3l-11.3,15c-1.3,1.8-1.5,4.1-0.6,6.1c1,2,3,3.2,5.2,3.2h11.2c-0.8,5-2.6,8.2-4.6,11.7
		c-3.1,5.4-6.6,11.6-6.6,23.3s3.5,17.9,6.6,23.3c2.7,4.8,5.1,8.9,5.1,17.5c0,3.2,2.6,5.8,5.8,5.8s5.8-2.6,5.8-5.8
		c0-11.8-3.5-17.9-6.6-23.3c-2.7-4.8-5.1-8.9-5.1-17.5c0-8.7,2.3-12.8,5.1-17.5c2.5-4.4,5.2-9.5,6.2-17.5h12.1
		c2.2,0,4.2-1.2,5.2-3.2c1-2,0.8-4.3-0.6-6.1L266.9,290z M235.3,155.9c-14.3,7.1-23.9,20.8-25.6,36.6c-0.3,3-2.9,5.2-5.8,5.2
		c-0.2,0-0.4,0-0.6,0c-3.2-0.4-5.5-3.2-5.2-6.4c2.2-19.8,14.2-36.9,32-45.8c2.9-1.4,6.4-0.3,7.8,2.6
		C239.3,150.9,238.1,154.4,235.3,155.9z"/>
	<path class="st1" d="M396,232.7c0-25.1-16.2-47.3-40.2-55.2c-1.9-0.6-4-0.2-5.6,1.1c-1.5,1.3-2.3,3.3-2,5.3
		c0.8,5.2,1.1,9.6,1.1,13.8c0,31.3-16.1,64.8-41,85.3c-1.4,1.1-2.2,2.8-2.1,4.6c0,1.8,0.9,3.5,2.3,4.5c6.4,4.9,13.3,8,20.3,9.5
		l-2.1,4.3c-0.9,1.8-0.8,4,0.3,5.7c1.1,1.7,2.9,2.8,5,2.8h0.6c1.2,5.7,4.1,9.4,6.5,12.4c2.7,3.4,4.6,5.7,4.6,10.9s-1.8,7.5-4.6,10.9
		c-3.2,4-7.1,8.9-7.1,18.2c0,3.2,2.6,5.8,5.8,5.8c3.2,0,5.8-2.6,5.8-5.8c0-5.2,1.8-7.5,4.6-10.9c3.2-4,7.1-8.9,7.1-18.2
		c0-9.3-3.9-14.3-7.1-18.2c-1.5-1.9-2.7-3.5-3.5-5.4c1.6-0.3,3-1.1,3.9-2.5c1.1-1.7,1.2-3.9,0.3-5.7l-2.2-4.3
		C374.6,295.4,396,261.4,396,232.7z"/>
	<path class="st1" d="M209.7,287.4c-28.1-19.7-47.1-55.7-47.1-89.8c0-11.9,2.3-23.6,6.8-34.7c0.9-2.1,0.4-4.6-1.2-6.2
		c-1.6-1.7-4.1-2.2-6.2-1.4c-27.5,10.1-46,36.5-46,65.7c0,34.8,26,74.8,61,80.8l-2,4.1c-0.9,1.8-0.8,4,0.3,5.7
		c0.9,1.5,2.5,2.4,4.3,2.6c-0.8,3.4-2.3,5.9-4.2,8.6c-3,4.6-6.8,10.2-6.8,20.7s3.8,16.2,6.8,20.7c2.7,4.1,4.9,7.3,4.9,14.3
		c0,3.2,2.6,5.8,5.8,5.8c3.2,0,5.8-2.6,5.8-5.8c0-10.5-3.8-16.2-6.8-20.7c-2.7-4.1-4.9-7.3-4.9-14.3c0-7,2.1-10.2,4.9-14.3
		c2.4-3.6,5.2-8,6.3-14.9h0.5c2,0,3.9-1,5-2.8c1.1-1.7,1.2-3.9,0.3-5.7l-2.1-4.2c4.6-0.8,9.3-2,13.9-4.1c1.9-0.9,3.2-2.7,3.4-4.8
		C212.4,290.7,211.4,288.6,209.7,287.4z"/>
</g>
</svg>
