<?xml version="1.0" encoding="utf-8"?>
<!-- Generator: Adobe Illustrator 25.2.1, SVG Export Plug-In . SVG Version: 6.00 Build 0)  -->
<svg version="1.1" id="Capa_1" xmlns="http://www.w3.org/2000/svg" xmlns:xlink="http://www.w3.org/1999/xlink" x="0px" y="0px"
	 viewBox="0 0 512 512" style="enable-background:new 0 0 512 512;" xml:space="preserve">
<style type="text/css">
	.st0{fill:#FA3B51;}
	.st1{fill:none;stroke:#FA3B51;stroke-width:4;stroke-linecap:round;stroke-linejoin:round;stroke-miterlimit:10;}
</style>
<g>
	<path class="st0" d="M508,4v504H4V4H508 M512,0H0v512h512V0L512,0z"/>
</g>
<path class="st1" d="M392.7,376.6L334.1,318c17.8-21.4,28.5-48.8,28.5-78.7c0-68-55.3-123.3-123.3-123.3
	c-68,0-123.3,55.3-123.3,123.3c0,68,55.3,123.3,123.3,123.3c29.9,0,57.4-10.7,78.7-28.5l58.5,58.5c2.2,2.2,5.1,3.3,8,3.3
	c2.9,0,5.8-1.1,8-3.3C397.1,388.2,397.1,381,392.7,376.6z M138.8,239.3c0-55.4,45.1-100.5,100.5-100.5s100.5,45.1,100.5,100.5
	s-45.1,100.5-100.5,100.5S138.8,294.7,138.8,239.3z"/>
</svg>
